<!--<svg width="26" height="26" viewBox="0 0 39 39" fill="none" xmlns="http://www.w3.org/2000/svg">-->
<!--<g filter="url(#filter0_d_1606_27571)">-->
<!--<path d="M19.5 2C24.1413 2 28.5925 3.84375 31.8744 7.12563C35.1563 10.4075 37 14.8587 37 19.5C37 21.7981 36.5474 24.0738 35.6679 26.197C34.7884 28.3202 33.4994 30.2493 31.8744 31.8744C28.5925 35.1563 24.1413 37 19.5 37C14.8587 37 10.4075 35.1563 7.12563 31.8744C3.84374 28.5925 2 24.1413 2 19.5C2 17.2019 2.45265 14.9262 3.33211 12.803C4.21157 10.6798 5.50061 8.75066 7.12563 7.12563C8.75066 5.50061 10.6798 4.21156 12.803 3.33211C14.9262 2.45265 17.2019 2 19.5 2ZM19.5 5.5C15.787 5.5 12.226 6.975 9.60051 9.60051C6.975 12.226 5.5 15.787 5.5 19.5C5.5 23.213 6.975 26.774 9.60051 29.3995C12.226 32.025 15.787 33.5 19.5 33.5C23.213 33.5 26.774 32.025 29.3995 29.3995C32.025 26.774 33.5 23.213 33.5 19.5C33.5 15.787 32.025 12.226 29.3995 9.60051C26.774 6.975 23.213 5.5 19.5 5.5ZM16 30L26.5 19.5L16 9L13.55 11.45L21.6 19.5L13.55 27.55L16 30Z" fill="#A78039"/>-->
<!--</g>-->
<!--<defs>-->
<!--<filter id="filter0_d_1606_27571" x="0" y="0" width="39" height="39" filterUnits="userSpaceOnUse" color-interpolation-filters="sRGB">-->
<!--<feFlood flood-opacity="0" result="BackgroundImageFix"/>-->
<!--<feColorMatrix in="SourceAlpha" type="matrix" values="0 0 0 0 0 0 0 0 0 0 0 0 0 0 0 0 0 0 127 0" result="hardAlpha"/>-->
<!--<feOffset/>-->
<!--<feGaussianBlur stdDeviation="1"/>-->
<!--<feComposite in2="hardAlpha" operator="out"/>-->
<!--<feColorMatrix type="matrix" values="0 0 0 0 0 0 0 0 0 0 0 0 0 0 0 0 0 0 0.3 0"/>-->
<!--<feBlend mode="normal" in2="BackgroundImageFix" result="effect1_dropShadow_1606_27571"/>-->
<!--<feBlend mode="normal" in="SourceGraphic" in2="effect1_dropShadow_1606_27571" result="shape"/>-->
<!--</filter>-->
<!--</defs>-->
<!--</svg>-->

<svg width="26" height="26" viewBox="0 0 26 26" fill="none" xmlns="http://www.w3.org/2000/svg">
<path d="M13 0C16.4478 0 19.7544 1.36964 22.1924 3.80761C24.6304 6.24559 26 9.55219 26 13C26 14.7072 25.6637 16.3977 25.0104 17.9749C24.3571 19.5521 23.3995 20.9852 22.1924 22.1924C19.7544 24.6304 16.4478 26 13 26C9.55219 26 6.24558 24.6304 3.80761 22.1924C1.36964 19.7544 0 16.4478 0 13C0 11.2928 0.336255 9.60235 0.989566 8.02512C1.64288 6.44788 2.60045 5.01477 3.80761 3.80761C5.01477 2.60045 6.44788 1.64288 8.02512 0.989565C9.60235 0.336254 11.2928 1.90735e-06 13 0ZM13 2.6C10.2417 2.6 7.59647 3.69571 5.64609 5.64609C3.69571 7.59647 2.6 10.2417 2.6 13C2.6 15.7583 3.69571 18.4035 5.64609 20.3539C7.59647 22.3043 10.2417 23.4 13 23.4C15.7583 23.4 18.4035 22.3043 20.3539 20.3539C22.3043 18.4035 23.4 15.7583 23.4 13C23.4 10.2417 22.3043 7.59647 20.3539 5.64609C18.4035 3.69571 15.7583 2.6 13 2.6ZM10.4 20.8L18.2 13L10.4 5.2L8.58 7.02L14.56 13L8.58 18.98L10.4 20.8Z" fill="#A78039"/>
</svg>
