<svg width="63" height="57" viewBox="0 0 63 57" fill="none" xmlns="http://www.w3.org/2000/svg">
<path d="M14.378 32.9956C15.0046 32.9956 15.5126 32.4848 15.5126 31.8546C15.5126 31.2245 15.0046 30.7137 14.378 30.7137C13.7515 30.7137 13.2435 31.2245 13.2435 31.8546C13.2435 32.4848 13.7515 32.9956 14.378 32.9956Z" fill="#543119"/>
<path d="M14.3953 34.0162C14.3634 34.0162 14.3315 34.0189 14.2996 34.0216C13.862 34.0697 13.5215 34.4416 13.5215 34.895V40.4915C13.5215 40.4915 13.5215 40.4928 13.5201 40.4928C13.5201 40.4982 13.5215 40.5035 13.5215 40.5089C13.5215 40.561 13.5188 40.6132 13.5135 40.664C13.5135 40.668 13.5122 40.6734 13.5122 40.6774C13.5082 40.7202 13.5002 40.763 13.4935 40.8045C13.4882 40.8339 13.4816 40.862 13.4736 40.8914C13.4683 40.9155 13.4629 40.9382 13.4563 40.961C13.4496 40.9837 13.4417 41.0064 13.4337 41.0292C13.4244 41.0559 13.4151 41.0814 13.4058 41.1054C13.3991 41.1228 13.3925 41.1389 13.3845 41.1549C13.3685 41.191 13.3539 41.2218 13.3393 41.2499C13.3353 41.2579 13.3313 41.2646 13.3273 41.2726C13.306 41.3101 13.2834 41.3475 13.2608 41.3836C13.2555 41.3917 13.2515 41.3984 13.2461 41.4064C13.2209 41.4438 13.1943 41.48 13.165 41.5161C13.157 41.5254 13.1491 41.5348 13.1397 41.5442C13.1158 41.5722 13.0905 41.6003 13.0653 41.6271C13.0613 41.6311 13.0573 41.6351 13.0533 41.6391C13.02 41.6726 12.9855 41.7033 12.9495 41.7341C12.9482 41.7354 12.9469 41.7368 12.9456 41.7368C12.9096 41.7662 12.8724 41.7943 12.8338 41.821C12.8298 41.8237 12.8272 41.8264 12.8232 41.8291C12.7846 41.8545 12.7447 41.8799 12.7035 41.9013C12.6888 41.9093 12.6742 41.916 12.6596 41.924C12.6303 41.9387 12.6011 41.9535 12.5731 41.9655C12.5585 41.9722 12.5452 41.9775 12.5306 41.9829C12.492 41.9976 12.4574 42.011 12.4255 42.0217C12.4188 42.0244 12.4122 42.027 12.4055 42.0284C12.3656 42.0404 12.3244 42.0511 12.2832 42.0605C12.2699 42.0631 12.2552 42.0672 12.2419 42.0698C12.2047 42.0765 12.1675 42.0832 12.1289 42.0872C12.1209 42.0886 12.1129 42.0899 12.1036 42.0912C12.101 42.0912 12.0996 42.0912 12.097 42.0912C12.0451 42.0966 11.9972 42.0979 11.9533 42.0979C11.9467 42.0979 11.94 42.0979 11.9334 42.0979C11.9307 42.0979 11.928 42.0979 11.9267 42.0979H7.39252H7.37257C7.36459 42.0979 7.35661 42.0979 7.3473 42.0979C4.25489 42.0979 1.74771 39.5766 1.74771 36.4667V31.6768V18.3076C1.74771 17.822 1.35667 17.4288 0.873855 17.4288C0.39104 17.4288 0 17.822 0 18.3076V36.46V36.4707C0.00532027 40.5517 3.29591 43.8582 7.35528 43.8582C7.39651 43.8582 7.43774 43.8555 7.47897 43.8555H14.9274C15.1162 43.8555 15.2692 43.7017 15.2692 43.5117V34.8963C15.2692 34.4108 14.8781 34.0162 14.3953 34.0162Z" fill="#543119"/>
<path d="M13.5773 14.1169C13.701 14.4513 14.0202 14.6894 14.3953 14.6894C14.8781 14.6894 15.2692 14.2961 15.2692 13.8106V9.41529C15.2559 9.27618 15.2333 9.07152 15.1974 8.82942C15.1974 8.82675 15.196 8.82273 15.196 8.82006C15.1867 8.75719 15.1761 8.69432 15.1654 8.63146C15.1495 8.53515 15.1295 8.43483 15.1082 8.33184C15.0963 8.27298 15.0843 8.21413 15.071 8.15528C15.0484 8.0563 15.0258 7.95731 14.9978 7.85699C14.9978 7.85566 14.9978 7.85432 14.9965 7.85298C14.9779 7.78476 14.9593 7.71655 14.938 7.64833C14.9313 7.62559 14.9247 7.60151 14.9167 7.57878C14.9034 7.5333 14.8888 7.4905 14.8742 7.44769C14.8569 7.3982 14.8409 7.35005 14.8249 7.30457C14.793 7.21495 14.7638 7.13603 14.7398 7.07451C14.7318 7.0531 14.7252 7.03572 14.7185 7.01833C14.7012 6.97419 14.6893 6.94342 14.6866 6.93807C14.6613 6.87788 14.6281 6.79762 14.5855 6.70399C14.5855 6.70266 14.5842 6.70266 14.5842 6.70132C14.5416 6.60902 14.4911 6.50202 14.4312 6.38431C14.4286 6.37762 14.4246 6.37227 14.4219 6.36558C14.3953 6.31342 14.3674 6.25858 14.3368 6.2024C14.3182 6.16762 14.2982 6.13418 14.2796 6.10074C14.2663 6.07666 14.2517 6.05125 14.2384 6.02717C14.1865 5.93756 14.1333 5.84927 14.0788 5.76233C14.0668 5.74227 14.0535 5.72488 14.0415 5.70481C13.9936 5.62991 13.9431 5.55501 13.8926 5.48278C13.8806 5.46539 13.8673 5.44666 13.8553 5.42927C13.7928 5.34099 13.7316 5.2594 13.6731 5.18182C13.6625 5.1671 13.6505 5.15239 13.6398 5.13768C13.5667 5.04405 13.4989 4.95978 13.435 4.88621C13.431 4.88086 13.427 4.87551 13.4217 4.8715C13.4177 4.86748 13.4137 4.86213 13.4111 4.85812C13.3419 4.77653 13.2741 4.70162 13.2062 4.63073C13.1903 4.61334 13.173 4.59595 13.157 4.57857C13.0799 4.49697 13.0041 4.42073 12.9349 4.35251C12.887 4.3057 12.8418 4.26289 12.7979 4.22277C12.7593 4.18799 12.7181 4.15054 12.6755 4.11308C12.6716 4.10907 12.6662 4.10506 12.6622 4.10105C12.5838 4.03149 12.4986 3.95926 12.4069 3.88569C12.3976 3.87901 12.3883 3.87098 12.3803 3.86429C12.3484 3.83888 12.3178 3.81346 12.2845 3.78805C12.23 3.74525 12.1754 3.70512 12.1222 3.66633C12.1129 3.65964 12.1049 3.65429 12.097 3.6476C12.0105 3.58474 11.9214 3.52321 11.8323 3.46302C11.8203 3.45499 11.8097 3.4483 11.7977 3.44028C11.7046 3.37875 11.6155 3.32391 11.5317 3.27308C11.521 3.26639 11.5091 3.2597 11.4984 3.25302C11.4053 3.19817 11.3189 3.14868 11.2391 3.10588C11.2298 3.10053 11.2205 3.09652 11.2125 3.09117C11.1992 3.08448 11.1859 3.07779 11.1739 3.0711C10.6831 2.81161 10.2761 2.66448 10.0872 2.60027C9.90502 2.53874 9.76802 2.49995 9.72413 2.48791C9.72413 2.48791 2.81176 0.531023 0.416311 0.00802553C0.414981 0.00802553 0.413651 0.00802553 0.412321 0.00802553C0.410991 0.00802553 0.410991 0.00802553 0.409661 0.00802553C0.39769 0.00401277 0.38705 0.00267518 0.38705 0.00267518C0.372419 0.00133759 0.360448 0 0.352468 0C0.352468 0 0.352468 0 0.352468 0.00133759C0.349808 0.00133759 0.345818 0 0.341827 0C0.152958 0 0 0.153823 0 0.34376C0 0.353123 0.00266014 0.362486 0.00266014 0.37185H0V5.36507V9.75904V9.87542H0.0119706C0.0252713 10.0025 0.0452223 10.1603 0.0718237 10.3409C0.0731537 10.3529 0.0758139 10.365 0.0771439 10.3783C0.0837943 10.4265 0.0931048 10.4733 0.0997551 10.5215C0.155618 10.8746 0.235422 11.2184 0.336507 11.5528C0.340497 11.5675 0.345818 11.5822 0.349808 11.5982C0.360448 11.6343 0.372419 11.6691 0.38306 11.7026C0.407001 11.7761 0.430942 11.8443 0.453553 11.9085C0.474834 11.9661 0.493455 12.0182 0.510746 12.065C0.526707 12.1079 0.542668 12.1466 0.553308 12.1761C0.567939 12.2122 0.57725 12.2349 0.57991 12.2416C0.603851 12.2991 0.634442 12.3727 0.673014 12.4596C0.679665 12.473 0.686315 12.4891 0.692965 12.5038C0.730207 12.5854 0.7741 12.6763 0.823312 12.7753C0.833953 12.7954 0.843263 12.8154 0.853904 12.8355C0.880505 12.8796 0.904446 12.9265 0.931048 12.9746C0.944348 13 0.958979 13.0228 0.97228 13.0482C0.994891 13.0896 1.0175 13.1298 1.04011 13.1699C1.08534 13.2475 1.13056 13.3237 1.17844 13.3986C1.20371 13.4388 1.22898 13.4762 1.25425 13.515C1.28485 13.5618 1.31677 13.6086 1.34869 13.6554C1.37928 13.7009 1.40987 13.7451 1.44046 13.7865C1.48303 13.8467 1.52692 13.9056 1.57214 13.9644C1.59741 13.9979 1.62268 14.03 1.64662 14.0607C1.70116 14.1303 1.75303 14.1945 1.80357 14.2533C1.82219 14.2747 1.84081 14.2988 1.8581 14.3189C1.8754 14.3389 1.89269 14.3577 1.90998 14.3764C1.95387 14.4259 1.99776 14.4754 2.04165 14.5235C2.07624 14.561 2.10949 14.5958 2.14274 14.6305C2.18397 14.6747 2.22653 14.7175 2.2691 14.759C2.31166 14.8018 2.35422 14.8419 2.39412 14.8807C2.41939 14.9047 2.44599 14.9315 2.47127 14.9529C2.49654 14.9756 2.52314 14.9997 2.54974 15.0238C2.58299 15.0532 2.61757 15.084 2.65349 15.1147C2.71068 15.1642 2.7692 15.2137 2.82772 15.2619C2.86231 15.29 2.89955 15.3194 2.93679 15.3488C2.95408 15.3622 2.96871 15.3742 2.986 15.3876C3.02058 15.4144 3.05517 15.4398 3.08975 15.4665C3.1363 15.5013 3.18285 15.5361 3.22941 15.5682C3.27995 15.6043 3.33049 15.6391 3.38103 15.6739C3.42892 15.706 3.4768 15.7381 3.52335 15.7675C3.58187 15.8049 3.63907 15.8411 3.69892 15.8772C3.73749 15.8999 3.77473 15.9227 3.81064 15.9441C3.87981 15.9842 3.94897 16.023 4.01947 16.0618C4.02346 16.0644 4.02745 16.0671 4.03144 16.0684C4.074 16.0912 4.11656 16.1126 4.15779 16.134C4.21366 16.1621 4.26952 16.1902 4.32538 16.2183C4.36395 16.237 4.40385 16.2557 4.4411 16.2731C4.54351 16.3199 4.63928 16.3627 4.72706 16.4002H4.72839C5.12475 16.5647 5.5384 16.6944 5.96402 16.7894C5.96269 16.7894 5.96136 16.7907 5.96003 16.7907C7.61464 17.2108 8.8383 17.5318 9.22402 17.6441C9.32378 17.6736 9.45944 17.7137 9.62437 17.7739C9.91965 17.8809 10.1418 17.9879 10.2548 18.0441C10.4237 18.1283 10.6512 18.2527 10.9066 18.4239C11.0768 18.5376 11.2989 18.7008 11.5423 18.9175C11.7591 19.1101 11.936 19.2974 12.0783 19.4619C12.1342 19.5275 12.2047 19.6104 12.2805 19.7094C12.5878 20.1053 12.7846 20.4651 12.8857 20.6657C13.0014 20.8958 13.0865 21.0991 13.1451 21.2556C13.2009 21.4041 13.2581 21.5766 13.3113 21.7679C13.3579 21.9391 13.4191 22.1919 13.4643 22.5022C13.4989 22.743 13.5255 23.0386 13.5241 23.3784C13.5241 23.7368 13.5241 24.0953 13.5241 24.4551V28.8491C13.5241 28.8799 13.5255 28.9093 13.5281 28.9387C13.5334 28.9976 13.5454 29.0551 13.5627 29.1099C13.58 29.1648 13.6026 29.2183 13.6292 29.2678C13.6558 29.3173 13.6877 29.3641 13.7236 29.4082C13.7596 29.451 13.7995 29.4911 13.842 29.5273C13.9072 29.5808 13.979 29.6249 14.0575 29.6583C14.1626 29.7025 14.2769 29.7279 14.398 29.7279C14.519 29.7279 14.6334 29.7038 14.7385 29.6583C14.817 29.6249 14.8888 29.5808 14.954 29.5273C14.9965 29.4911 15.0364 29.451 15.0723 29.4082C15.1082 29.3654 15.1402 29.3173 15.1668 29.2678C15.1934 29.2183 15.216 29.1648 15.2333 29.1099C15.2506 29.0551 15.2625 28.9976 15.2678 28.9387C15.2705 28.9093 15.2718 28.8799 15.2718 28.8491V24.4551C15.2718 24.0218 15.2718 23.5884 15.2718 23.1563C15.2599 22.7484 15.212 22.2026 15.0617 21.5766C14.8888 20.8557 14.4658 19.5448 13.3871 18.3089C13.1358 18.0213 12.7301 17.6 12.1608 17.184C12.1036 17.1425 11.4918 16.7011 10.6804 16.3413C10.5222 16.2704 10.3572 16.2035 10.187 16.1434C9.8824 16.035 9.3424 15.8705 8.79175 15.7287C8.71593 15.7086 8.65342 15.6939 8.61219 15.6832C7.81016 15.4799 7.00813 15.2766 6.20477 15.0733C6.06112 15.0358 5.86028 14.9783 5.62619 14.8914C3.70424 14.1718 2.73063 12.6161 2.5923 12.3874C1.96584 11.3535 1.79825 10.3529 1.75037 9.76038V5.36507V4.99188V4.28563C1.75037 4.23614 1.75303 4.18665 1.75835 4.1385C1.75968 4.12512 1.76101 4.11308 1.76234 4.09971C1.76766 4.05958 1.77298 4.01812 1.78096 3.97933C1.78229 3.97264 1.78362 3.96729 1.78362 3.9606C1.79293 3.91512 1.8049 3.87098 1.8182 3.82684C1.82086 3.81881 1.82219 3.81213 1.82485 3.8041C1.83815 3.75996 1.85411 3.71716 1.87141 3.67569C1.87274 3.67168 1.8754 3.66633 1.87673 3.66232C1.89402 3.61951 1.91397 3.57939 1.93658 3.53792C1.93924 3.53391 1.94057 3.52856 1.94323 3.52455C1.96584 3.48442 1.98978 3.44429 2.01505 3.4055C2.01904 3.39881 2.02436 3.39212 2.02835 3.38544C2.05096 3.35333 2.07358 3.32123 2.09885 3.29047C2.10417 3.28378 2.10949 3.27575 2.11614 3.26907C2.14407 3.23429 2.17466 3.20219 2.20525 3.17008C2.21057 3.1634 2.21722 3.15805 2.22387 3.1527C2.2558 3.12193 2.28772 3.09117 2.32097 3.06308C2.32496 3.0604 2.32762 3.05773 2.33161 3.05505C2.36885 3.02429 2.40742 2.99486 2.44732 2.96811C2.44732 2.96811 2.44866 2.96811 2.44866 2.96677C2.48856 2.94002 2.52979 2.91461 2.57368 2.89053C2.57634 2.88919 2.57767 2.88785 2.58033 2.88652C2.62023 2.86511 2.66147 2.84505 2.7027 2.82632C2.70935 2.82365 2.716 2.81964 2.72398 2.81696C2.76521 2.79957 2.80777 2.78352 2.85167 2.77015C2.85832 2.76747 2.8663 2.76613 2.87295 2.76346C2.91817 2.75008 2.96472 2.73671 3.01127 2.72734C3.01127 2.72734 3.01127 2.72734 3.0126 2.72734C3.06315 2.71664 3.11369 2.70995 3.16556 2.70327C3.16955 2.70327 3.17354 2.70327 3.1762 2.70193C3.22674 2.69658 3.27862 2.6939 3.33049 2.6939C3.38502 2.6939 3.43823 2.69658 3.49143 2.70193C3.5433 2.70728 3.59517 2.7153 3.64572 2.72601C3.64838 2.72601 3.64971 2.72734 3.65237 2.72734C3.67099 2.73136 3.68961 2.73537 3.7069 2.73938C3.93966 2.79823 4.17109 2.85709 4.40386 2.91594C5.96003 3.31053 7.51621 3.70512 9.07106 4.09971C9.21471 4.13716 9.41555 4.19468 9.64964 4.28162C11.5716 5.00124 12.5452 6.55686 12.6835 6.78559C13.31 7.81954 13.4776 8.82006 13.5255 9.41261V13.8066C13.5228 13.9176 13.5428 14.0206 13.5773 14.1169Z" fill="#C88C3F"/>
<path d="M32.4962 13.725C32.4962 13.7183 32.4975 13.7116 32.4975 13.7049C32.4975 13.2194 32.1065 12.8261 31.6237 12.8261C31.5386 12.8261 31.4561 12.8395 31.379 12.8622C31.379 12.8622 31.379 12.8622 31.379 12.8609C31.375 12.8622 31.371 12.8636 31.367 12.8649C31.3643 12.8662 31.363 12.8662 31.3603 12.8676C26.3513 14.4433 22.7309 15.5829 22.5939 15.6257C22.5939 15.6257 22.5925 15.6257 22.5912 15.627C22.5752 15.6324 22.5207 15.6484 22.4475 15.6738C22.4103 15.6859 22.3332 15.7126 22.2374 15.7474C22.2361 15.7474 22.2361 15.7487 22.2347 15.7487C22.2321 15.7501 22.2294 15.7501 22.2268 15.7514C22.1869 15.7661 22.1549 15.7782 22.1403 15.7835C22.107 15.7956 22.0765 15.8076 22.0499 15.8196L22.0512 15.821C19.2261 16.9472 17.227 19.7174 17.227 22.9597V31.4373C17.227 31.4413 17.227 31.4453 17.227 31.4494V44.8186V49.6085C17.227 52.7183 14.7199 55.2397 11.6274 55.2397C11.6195 55.2397 11.6115 55.2397 11.6022 55.2397H11.5822H7.04403C7.04137 55.2397 7.03871 55.2397 7.03738 55.2397C7.03073 55.2397 7.02408 55.2397 7.01743 55.2397C6.97354 55.2397 6.92698 55.237 6.87378 55.233C6.87112 55.233 6.86979 55.233 6.86713 55.233C6.85915 55.2317 6.85117 55.2303 6.84186 55.229C6.80329 55.225 6.76605 55.2183 6.7288 55.2116C6.7155 55.2089 6.70087 55.2063 6.68757 55.2023C6.64634 55.1929 6.60511 55.1835 6.56521 55.1701C6.55855 55.1675 6.5519 55.1661 6.54525 55.1635C6.51333 55.1528 6.47875 55.1407 6.44018 55.1247C6.42555 55.1193 6.41225 55.1126 6.39762 55.1073C6.36968 55.0952 6.34042 55.0805 6.31116 55.0658C6.29653 55.0578 6.2819 55.0511 6.26727 55.0431C6.22604 55.0203 6.18614 54.9963 6.14756 54.9708C6.14357 54.9682 6.13958 54.9655 6.13692 54.9628C6.09835 54.9361 6.06111 54.9093 6.0252 54.8786C6.02387 54.8772 6.02254 54.8759 6.02121 54.8759C5.9853 54.8465 5.95071 54.8143 5.91746 54.7809C5.91347 54.7769 5.90948 54.7729 5.90549 54.7689C5.87889 54.7421 5.85495 54.714 5.83101 54.6859C5.82303 54.6766 5.81372 54.6672 5.80574 54.6578C5.7778 54.6231 5.74987 54.587 5.7246 54.5482C5.71928 54.5401 5.71529 54.5335 5.70997 54.5254C5.68603 54.4893 5.66342 54.4532 5.64347 54.4144C5.63948 54.4077 5.63549 54.3997 5.6315 54.3917C5.61687 54.3636 5.60224 54.3315 5.58627 54.2967C5.57829 54.2806 5.57164 54.2633 5.56499 54.2472C5.55568 54.2231 5.54637 54.1977 5.53706 54.171C5.52908 54.1482 5.5211 54.1255 5.51445 54.1028C5.5078 54.0814 5.50248 54.0573 5.49716 54.0332C5.49051 54.0051 5.48253 53.9757 5.47721 53.9463C5.46923 53.9048 5.46258 53.862 5.45859 53.8192C5.45859 53.8152 5.45726 53.8098 5.45726 53.8058C5.45194 53.755 5.44928 53.7028 5.44928 53.6507C5.44928 53.6453 5.45061 53.6399 5.45061 53.6346C5.45061 53.6346 5.45061 53.6333 5.44928 53.6333V48.0368C5.44928 48.0354 5.44928 48.0341 5.44928 48.0328V46.0719C5.44928 45.5863 5.05824 45.1931 4.57542 45.1931C4.09261 45.1931 3.70157 45.5863 3.70157 46.0719V49.7034V56.6535C3.70157 56.8435 3.85453 56.9973 4.0434 56.9973H11.4918C11.533 56.9986 11.5742 57 11.6155 57C15.6748 57 18.9654 53.6935 18.9707 49.6125V49.6018V35.949V35.2548C18.9707 35.4862 18.9707 35.7176 18.9707 35.949C18.9747 35.7979 18.984 35.5798 19.004 35.315C19.0133 35.2013 19.024 35.0568 19.0399 34.9311C19.0944 34.4924 19.2208 34.1526 19.286 33.9801C19.4629 33.5119 19.6757 33.1789 19.7754 33.0317C19.959 32.7615 20.2396 32.4124 20.648 32.082C21.0696 31.7396 21.446 31.5644 21.6961 31.4494C21.9208 31.3464 22.0499 31.3049 22.9503 31.0267C23.4903 30.8595 23.767 30.7739 24.291 30.6134C24.3003 30.6107 24.3083 30.608 24.3176 30.6053C25.1423 30.3525 24.9694 30.3993 25.7834 30.1492C26.8501 29.8215 27.0522 29.7707 27.4619 29.5874C27.8609 29.4082 28.1682 29.233 28.3371 29.1327C28.7175 28.9053 29.0128 28.6872 29.2083 28.5347C29.5927 28.2351 30.1526 27.7509 30.7645 27.03C30.7658 27.0286 30.7685 27.0259 30.7698 27.0246C30.7844 27.0099 30.7977 26.9952 30.8123 26.9791C30.8177 26.9738 30.823 26.9684 30.827 26.9631C30.8283 26.9617 30.8283 26.9617 30.8283 26.9604C30.8496 26.935 30.8682 26.9082 30.8868 26.8815C30.8882 26.8802 30.8908 26.8775 30.8908 26.8748C30.9773 26.741 31.0278 26.5805 31.0278 26.4093C31.0278 25.9331 30.6448 25.5479 30.1713 25.5479C29.8999 25.5479 29.6578 25.6763 29.5009 25.8743C29.4903 25.8903 29.477 25.9064 29.465 25.9238C29.4583 25.9331 29.4517 25.9425 29.445 25.9505C29.3958 26.0161 29.3453 26.0803 29.2934 26.1445C29.2828 26.1579 29.2721 26.1699 29.2615 26.1833C29.207 26.2488 29.1524 26.313 29.0952 26.3772C29.0753 26.3986 29.0553 26.4187 29.0354 26.4401C28.9915 26.4882 28.9463 26.5364 28.901 26.5819C28.8957 26.5872 28.8917 26.5912 28.8864 26.5966C28.8266 26.6554 28.7667 26.7143 28.7042 26.7705C28.6882 26.7852 28.6723 26.7986 28.6563 26.8133C28.6058 26.8588 28.5552 26.9029 28.5033 26.9457C28.4847 26.9617 28.4661 26.9765 28.4475 26.9912C28.4076 27.0246 28.3664 27.0554 28.3251 27.0875C28.2799 27.1223 28.2347 27.157 28.1881 27.1905C28.1522 27.2159 28.1163 27.2426 28.0804 27.2667C28.0405 27.2935 28.0006 27.3216 27.9607 27.347C27.9194 27.3737 27.8795 27.4005 27.837 27.4259C27.8037 27.446 27.7718 27.466 27.7386 27.4861C27.6893 27.5155 27.6388 27.5449 27.5883 27.573C27.5643 27.5864 27.5417 27.5998 27.5178 27.6118C27.4526 27.6466 27.3874 27.68 27.3209 27.7135C27.2983 27.7255 27.2744 27.7362 27.2518 27.7469C27.1799 27.7803 27.1081 27.8138 27.035 27.8459C27.031 27.8472 27.027 27.8499 27.023 27.8512C27.0203 27.8526 27.0163 27.8539 27.0137 27.8553C26.201 28.2004 23.2376 29.126 21.2651 29.7332C20.2144 30.0569 19.4429 30.2897 19.4296 30.2964C19.4296 30.2964 19.4177 30.3017 19.4017 30.3071C19.399 30.3084 19.3884 30.3124 19.3751 30.3151C19.3312 30.3258 19.2926 30.3244 19.2833 30.3244C19.2687 30.3244 19.258 30.3231 19.2501 30.3218C19.2354 30.3191 19.2142 30.3151 19.1889 30.3071C19.1796 30.303 19.1676 30.299 19.1543 30.2923C19.1463 30.2883 19.1357 30.283 19.1237 30.275C19.1157 30.2696 19.1011 30.2602 19.0838 30.2455C19.0772 30.2402 19.0718 30.2348 19.0692 30.2321C19.0652 30.2281 19.0585 30.2214 19.0519 30.2134C19.0466 30.2067 19.0373 30.196 19.0293 30.184C19.0133 30.1613 19.004 30.1399 18.9987 30.1292C18.9934 30.1171 18.9867 30.0984 18.9801 30.0743C18.9787 30.0663 18.9761 30.0583 18.9761 30.0529C18.9721 30.0315 18.9721 30.0128 18.9721 29.9981C18.9721 30.0971 18.9721 30.1947 18.9721 30.2937V27.8446V22.957V22.9209C18.9721 20.2671 20.7078 18.0213 23.1006 17.2696C23.1059 17.2682 23.1126 17.2656 23.1179 17.2642C25.1795 16.6235 26.6998 16.1514 27.7133 15.8357C28.7494 15.5133 29.2588 15.3542 29.2748 15.3488C29.2761 15.3488 29.2987 15.3408 29.3293 15.3301C29.3466 15.3247 29.3639 15.3194 29.3785 15.3154C29.4597 15.294 29.5687 15.2752 29.6964 15.2792C29.872 15.2859 30.0063 15.3328 30.0768 15.3622C30.1407 15.3889 30.2391 15.4371 30.3415 15.52C30.424 15.5869 30.5783 15.7327 30.6714 15.9708C30.7352 16.1326 30.7472 16.2798 30.7472 16.3801V22.0662C30.7472 22.5517 31.1382 22.945 31.621 22.945C32.1038 22.945 32.4949 22.5517 32.4949 22.0662C32.4949 22.0595 32.4935 22.0528 32.4935 22.0461V13.725H32.4962Z" fill="#543119"/>
<path d="M28.0804 42.5755C28.0485 42.5434 28.0099 42.5273 27.9634 42.5273H27.2119H25.0838H24.3323C24.2871 42.5273 24.2631 42.5046 24.2631 42.4591V34.8108C24.2631 34.7653 24.2472 34.7265 24.2152 34.6944C24.1833 34.6623 24.1447 34.6462 24.0982 34.6462H23.2456H22.4941C22.4489 34.6462 22.409 34.6623 22.3771 34.6944C22.3452 34.7265 22.3292 34.7653 22.3292 34.8108V44.0107C22.3292 44.0562 22.3452 44.095 22.3771 44.1271C22.409 44.1592 22.4476 44.1752 22.4941 44.1752H23.2456H27.2132H27.9647C28.0099 44.1752 28.0498 44.1592 28.0817 44.1271C28.1137 44.095 28.1296 44.0575 28.1296 44.0107V42.6905C28.1283 42.645 28.1123 42.6076 28.0804 42.5755Z" fill="#543119"/>
<path d="M29.1218 44.1271C29.0899 44.095 29.0726 44.0575 29.0726 44.0107V34.8108C29.0726 34.7653 29.0886 34.7265 29.1218 34.6944C29.1538 34.6623 29.1937 34.6462 29.2402 34.6462H30.8642C30.9108 34.6462 30.9494 34.6623 30.9826 34.6944C31.0145 34.7265 31.0318 34.7653 31.0318 34.8108V44.0107C31.0318 44.0562 31.0159 44.095 30.9826 44.1271C30.9507 44.1592 30.9108 44.1752 30.8642 44.1752H29.2402C29.1923 44.1739 29.1538 44.1578 29.1218 44.1271Z" fill="#543119"/>
<path d="M34.4168 36.2941H35.0287H35.2136H37.081H37.2659H37.8777H38.0626C38.1078 36.2941 38.1464 36.278 38.1783 36.2459C38.2102 36.2138 38.2262 36.1764 38.2262 36.1309V34.8107C38.2262 34.7652 38.2102 34.7264 38.1783 34.6943C38.1464 34.6622 38.1078 34.6462 38.0626 34.6462H37.8777H37.2659H37.081H33.3874H33.2025H32.5907C32.5454 34.6462 32.5069 34.6622 32.4749 34.6943C32.443 34.7264 32.4271 34.7652 32.4271 34.8107V44.0106C32.4271 44.0561 32.443 44.0949 32.4749 44.127C32.5069 44.1591 32.5454 44.1752 32.5907 44.1752H33.2025H33.3874H37.081H37.2659H37.8777H38.0626C38.1078 44.1752 38.1464 44.1591 38.1783 44.127C38.2102 44.0949 38.2262 44.0575 38.2262 44.0106V42.6904C38.2262 42.645 38.2102 42.6062 38.1783 42.5754C38.1464 42.5433 38.1078 42.5273 38.0626 42.5273H37.8777H37.2659H37.081H35.2136H35.0287H34.4168C34.3716 42.5273 34.349 42.5045 34.349 42.459V40.2948C34.349 40.2493 34.3716 40.2266 34.4168 40.2266H35.0287H35.2136H35.8666H36.0515H36.6633C36.7086 40.2266 36.7471 40.2105 36.779 40.1784C36.811 40.1463 36.8269 40.1089 36.8269 40.0621V38.7419C36.8269 38.6964 36.811 38.6576 36.779 38.6268C36.7471 38.5947 36.7086 38.5787 36.6633 38.5787H36.0515H35.8666H35.2136H35.0287H34.4168C34.3716 38.5787 34.349 38.556 34.349 38.5105V36.3596C34.349 36.3168 34.3716 36.2941 34.4168 36.2941Z" fill="#543119"/>
<path d="M33.2437 33.8276C33.2198 33.7955 33.2264 33.746 33.265 33.6805L34.1588 32.2292C34.196 32.1543 34.2625 32.1182 34.357 32.1182H36.1872C36.2723 32.1182 36.3388 32.1556 36.3853 32.2292L37.3217 33.6805C37.3403 33.7366 37.3496 33.7687 37.3496 33.7781C37.3496 33.8437 37.3017 33.8758 37.2073 33.8758H35.9584C35.8639 33.8758 35.7974 33.8343 35.7602 33.75L35.3346 32.9689C35.3066 32.9221 35.2774 32.9221 35.2495 32.9689L34.8238 33.75C34.7759 33.8343 34.7055 33.8758 34.611 33.8758H33.3767C33.3129 33.8758 33.2677 33.8597 33.2437 33.8276Z" fill="#543119"/>
<path d="M43.7992 34.6957C43.8351 34.6636 43.879 34.6476 43.9308 34.6476H45.7291C45.781 34.6476 45.8249 34.6636 45.8608 34.6957C45.8967 34.7278 45.9153 34.7666 45.9153 34.8121V44.012C45.9153 44.0575 45.8967 44.0963 45.8608 44.1284C45.8249 44.1605 45.781 44.1766 45.7291 44.1766H43.6821C43.5784 44.1766 43.5119 44.1311 43.4799 44.0401L41.558 38.774C41.5474 38.7473 41.5287 38.7353 41.5035 38.7406C41.4782 38.7446 41.4649 38.7607 41.4649 38.7888L41.4809 44.0147C41.4809 44.0602 41.4622 44.099 41.4263 44.1311C41.3904 44.1632 41.3465 44.1792 41.2946 44.1792H39.4964C39.4445 44.1792 39.4006 44.1632 39.3647 44.1311C39.3288 44.099 39.3102 44.0615 39.3102 44.0147V34.8148C39.3102 34.7693 39.3275 34.7305 39.3647 34.6984C39.4006 34.6663 39.4445 34.6503 39.4964 34.6503H41.5274C41.6312 34.6503 41.6977 34.6957 41.7296 34.7867L43.6675 40.0528C43.6781 40.0795 43.6954 40.0916 43.722 40.0862C43.7473 40.0822 43.7606 40.0662 43.7606 40.0381L43.7446 34.8121C43.7446 34.7666 43.7632 34.7278 43.7992 34.6957Z" fill="#543119"/>
<path d="M51.2196 43.9973C50.7581 43.7873 50.4016 43.493 50.1489 43.1145C49.8975 42.7359 49.7712 42.2999 49.7712 41.8063V41.409C49.7712 41.3636 49.7898 41.3248 49.8257 41.2927C49.8629 41.2606 49.9068 41.2445 49.96 41.2445H51.7702C51.8221 41.2445 51.8673 41.2606 51.9046 41.2927C51.9418 41.3248 51.9591 41.3636 51.9591 41.409V41.71C51.9591 41.9936 52.0429 42.221 52.2105 42.3949C52.3781 42.5687 52.5882 42.6557 52.8396 42.6557C53.091 42.6557 53.3011 42.5741 53.4687 42.4096C53.6363 42.245 53.7201 42.031 53.7201 41.7662C53.7201 41.492 53.615 41.2579 53.4049 41.0613C53.1947 40.8647 52.7864 40.5757 52.1772 40.1918C51.6532 39.8628 51.2276 39.5712 50.903 39.3157C50.5772 39.0602 50.2992 38.7459 50.0691 38.3714C49.8377 37.9969 49.7233 37.5635 49.7233 37.0699C49.7233 36.2941 50.0012 35.6735 50.5572 35.208C51.1132 34.7425 51.8474 34.5098 52.7598 34.5098C53.6829 34.5098 54.4251 34.7519 54.9863 35.2361C55.5476 35.7203 55.8283 36.3543 55.8283 37.1395V37.4685C55.8283 37.514 55.8097 37.5528 55.7737 37.5849C55.7365 37.617 55.6926 37.633 55.6394 37.633H53.8292C53.776 37.633 53.7321 37.617 53.6949 37.5849C53.6576 37.5528 53.6403 37.514 53.6403 37.4685V37.0993C53.6403 36.8171 53.5592 36.5911 53.3969 36.4212C53.2346 36.2526 53.0218 36.1684 52.7598 36.1684C52.5084 36.1684 52.3036 36.2486 52.1467 36.4078C51.9897 36.567 51.9112 36.789 51.9112 37.0726C51.9112 37.3468 52.011 37.5889 52.2105 37.7989C52.41 38.0089 52.8037 38.3005 53.3903 38.675C54.0407 39.095 54.5315 39.4348 54.8613 39.6956C55.1925 39.9564 55.4492 40.2427 55.6328 40.5583C55.8163 40.874 55.9081 41.2499 55.9081 41.6886C55.9081 42.4925 55.6248 43.1305 55.0582 43.6054C54.4916 44.0802 53.7467 44.317 52.8237 44.317C52.2158 44.313 51.6811 44.2073 51.2196 43.9973Z" fill="#543119"/>
<path d="M58.6081 44.1257C58.5709 44.0936 58.5536 44.0562 58.5536 44.0107V40.4728L58.5376 40.3912L56.3444 34.8522C56.3337 34.8335 56.3284 34.8107 56.3284 34.784C56.3284 34.7024 56.3856 34.6609 56.5013 34.6609H58.4286C58.543 34.6609 58.6161 34.7064 58.648 34.7974L59.619 38.0504C59.6296 38.0771 59.6443 38.0918 59.6655 38.0918C59.6868 38.0918 59.7015 38.0785 59.7121 38.0504L60.683 34.7974C60.715 34.7064 60.7868 34.6609 60.9025 34.6609H62.8298C62.8923 34.6609 62.9388 34.677 62.9708 34.7091C63.0027 34.7412 63.0067 34.7893 62.9867 34.8522L60.7775 40.3912L60.7615 40.4728V44.0107C60.7615 44.0562 60.7429 44.0949 60.707 44.1257C60.6697 44.1578 60.6259 44.1739 60.574 44.1739H58.7411C58.6893 44.1739 58.6454 44.1578 58.6081 44.1257ZM59.7241 33.5106C59.6363 33.4732 59.5352 33.4196 59.4221 33.3528C59.3091 33.2859 59.204 33.2524 59.1056 33.2524C58.8901 33.2524 58.7132 33.3581 58.5749 33.5681C58.5057 33.6631 58.4233 33.6832 58.3248 33.6256L57.7063 33.1963C57.6279 33.1388 57.6026 33.0625 57.6332 32.9675C57.7609 32.6331 57.9404 32.3844 58.1705 32.2225C58.4006 32.0607 58.6534 31.9791 58.9287 31.9791C59.2226 31.9791 59.5379 32.0887 59.8717 32.3081C59.8917 32.3268 59.9409 32.3603 60.0193 32.4084C60.0978 32.4566 60.1736 32.494 60.2481 32.5235C60.3213 32.5516 60.3971 32.5663 60.4769 32.5663C60.703 32.5663 60.8799 32.4713 61.0076 32.28C61.0767 32.165 61.1592 32.1422 61.2576 32.2078L61.8469 32.6091C61.8961 32.6372 61.92 32.6813 61.92 32.7375C61.92 32.795 61.8947 32.8619 61.8469 32.9381C61.6793 33.2244 61.4758 33.4344 61.2363 33.5681C60.9956 33.7019 60.7575 33.7688 60.5221 33.7688C60.3133 33.7688 60.0473 33.6832 59.7241 33.5106Z" fill="#543119"/>
<path d="M27.5816 48.3645H23.9492C23.9053 48.3645 23.884 48.3832 23.884 48.4194V51.3821C23.884 51.4182 23.9053 51.437 23.9492 51.437H26.1704C26.2782 51.437 26.3327 51.4824 26.3327 51.5734V52.4335C26.3327 52.5244 26.2782 52.5699 26.1704 52.5699H23.9492C23.9053 52.5699 23.884 52.5886 23.884 52.6247V56.6522C23.884 56.7432 23.8295 56.7886 23.7218 56.7886H22.4888C22.3811 56.7886 22.3265 56.7432 22.3265 56.6522V47.3693C22.3265 47.2784 22.3811 47.2329 22.4888 47.2329H27.5803C27.688 47.2329 27.7426 47.2784 27.7426 47.3693V48.2294C27.7439 48.319 27.6894 48.3645 27.5816 48.3645Z" fill="#C88C3F"/>
<path d="M46.3263 56.2429C45.7943 55.7868 45.5296 55.1795 45.5296 54.4211V49.6419C45.5296 48.8835 45.7956 48.2749 46.3263 47.8134C46.8583 47.352 47.5593 47.1219 48.4304 47.1219C49.3123 47.1219 50.0225 47.352 50.5586 47.8134C51.0946 48.2749 51.3633 48.8835 51.3633 49.6419V54.4211C51.3633 55.1795 51.0946 55.7868 50.5586 56.2429C50.0212 56.699 49.3123 56.9277 48.4304 56.9277C47.5593 56.9277 46.8583 56.7004 46.3263 56.2429ZM49.4519 55.4283C49.7073 55.1862 49.835 54.8692 49.835 54.4759V49.5723C49.835 49.1804 49.7073 48.8621 49.4519 48.62C49.1966 48.3779 48.8561 48.2575 48.4318 48.2575C48.0168 48.2575 47.6856 48.3792 47.4356 48.62C47.1855 48.8621 47.0605 49.1791 47.0605 49.5723V54.4759C47.0605 54.8692 47.1855 55.1862 47.4356 55.4283C47.6856 55.6704 48.0181 55.7908 48.4318 55.7908C48.8561 55.7908 49.1966 55.6704 49.4519 55.4283Z" fill="#C88C3F"/>
<path d="M34.5166 56.2429C33.9846 55.7868 33.7199 55.1795 33.7199 54.4211V49.6419C33.7199 48.8835 33.9859 48.2749 34.5166 47.8134C35.0486 47.352 35.7496 47.1219 36.6208 47.1219C37.5026 47.1219 38.2128 47.352 38.7489 47.8134C39.2849 48.2749 39.5536 48.8835 39.5536 49.6419V54.4211C39.5536 55.1795 39.2849 55.7868 38.7489 56.2429C38.2115 56.699 37.5026 56.9277 36.6208 56.9277C35.7496 56.9277 35.0473 56.7004 34.5166 56.2429ZM37.6409 55.4283C37.8963 55.1862 38.024 54.8692 38.024 54.4759V49.5723C38.024 49.1804 37.8963 48.8621 37.6409 48.62C37.3855 48.3779 37.045 48.2575 36.6208 48.2575C36.2058 48.2575 35.8746 48.3792 35.6245 48.62C35.3745 48.8621 35.2495 49.1791 35.2495 49.5723V54.4759C35.2495 54.8692 35.3745 55.1862 35.6245 55.4283C35.8746 55.6704 36.2071 55.7908 36.6208 55.7908C37.0464 55.7908 37.3855 55.6704 37.6409 55.4283Z" fill="#C88C3F"/>
<path d="M57.3405 56.6509V47.368C57.3405 47.277 57.3937 47.2316 57.5002 47.2316H60.1151C60.9969 47.2316 61.6992 47.463 62.2192 47.9285C62.7406 48.3926 63 49.0213 63 49.8118V54.2071C63 54.9989 62.7393 55.6263 62.2192 56.0904C61.6979 56.5546 60.9969 56.7873 60.1151 56.7873H57.5002C57.3937 56.7873 57.3405 56.7418 57.3405 56.6509ZM58.9353 55.6544L60.0991 55.641C60.5034 55.641 60.8267 55.5072 61.0714 55.2384C61.3161 54.9695 61.4438 54.603 61.4544 54.1389V49.88C61.4544 49.4159 61.3321 49.0467 61.0873 48.7738C60.8426 48.5009 60.5128 48.3645 60.0991 48.3645H58.9353C58.8927 48.3645 58.8715 48.3832 58.8715 48.4193V55.5995C58.8715 55.637 58.8914 55.6544 58.9353 55.6544Z" fill="#C88C3F"/>
</svg>
